<svg width="293" height="87" viewBox="0 0 293 87" fill="none" xmlns="http://www.w3.org/2000/svg">
<path shape-rendering="geometricPrecision" d="M23.8359 86.1719C19.5 86.1719 15.5352 85.0781 11.9414 82.8906C8.38672 80.7031 5.55469 77.7734 3.44531 74.1016C1.375 70.3906 0.339844 66.2695 0.339844 61.7383L0.457031 24.2969C0.457031 19.8438 1.47266 15.8203 3.50391 12.2266C5.53516 8.59375 8.32812 5.68359 11.8828 3.49609C15.4766 1.26953 19.4609 0.15625 23.8359 0.15625C28.2891 0.15625 32.2539 1.23047 35.7305 3.37891C39.2461 5.52734 42.0391 8.4375 44.1094 12.1094C46.2188 15.7422 47.2734 19.8047 47.2734 24.2969V29.8047C47.2734 30.1172 47.1172 30.2734 46.8047 30.2734H33.3281C33.0156 30.2734 32.8594 30.1172 32.8594 29.8047V24.2969C32.8594 21.6406 32 19.3555 30.2812 17.4414C28.5625 15.5273 26.4141 14.5703 23.8359 14.5703C20.9844 14.5703 18.7969 15.5469 17.2734 17.5C15.75 19.4531 14.9883 21.7188 14.9883 24.2969V61.7383C14.9883 64.668 15.8477 67.0703 17.5664 68.9453C19.2852 70.7812 21.375 71.6992 23.8359 71.6992C26.4141 71.6992 28.5625 70.6836 30.2812 68.6523C32 66.582 32.8594 64.2773 32.8594 61.7383V56.1719C32.8594 55.8594 33.0156 55.7031 33.3281 55.7031H46.9219C47.2344 55.7031 47.3906 55.8594 47.3906 56.1719V61.7383C47.3906 66.2305 46.3359 70.332 44.2266 74.043C42.0781 77.7148 39.2461 80.6641 35.7305 82.8906C32.2148 85.0781 28.25 86.1719 23.8359 86.1719Z" fill="white"/>
<path shape-rendering="geometricPrecision" d="M128.926 85H115.332C114.941 85 114.746 84.8047 114.746 84.4141L114.863 1.97266C114.863 1.66016 115.02 1.50391 115.332 1.50391H128.809C129.121 1.50391 129.277 1.66016 129.277 1.97266L129.395 84.4141C129.395 84.8047 129.238 85 128.926 85Z" fill="white"/>
<path shape-rendering="geometricPrecision" d="M160.332 86.1719C156.074 86.1719 152.148 85.0781 148.555 82.8906C145 80.7031 142.148 77.793 140 74.1602C137.891 70.4883 136.836 66.4648 136.836 62.0898V56.582C136.836 56.1523 137.031 55.9375 137.422 55.9375H150.898C151.211 55.9375 151.367 56.1523 151.367 56.582V62.0898C151.367 64.707 152.246 66.9727 154.004 68.8867C155.762 70.7617 157.871 71.6992 160.332 71.6992C162.832 71.6992 164.961 70.7422 166.719 68.8281C168.477 66.875 169.355 64.6289 169.355 62.0898C169.355 59.1602 167.441 56.6016 163.613 54.4141C162.988 54.0234 162.168 53.5547 161.152 53.0078C160.176 52.4219 159.004 51.7578 157.637 51.0156C156.27 50.2734 154.941 49.5508 153.652 48.8477C152.363 48.1055 151.113 47.4023 149.902 46.7383C145.527 44.1602 142.266 40.9375 140.117 37.0703C138.008 33.1641 136.953 28.7891 136.953 23.9453C136.953 19.4922 138.047 15.4688 140.234 11.875C142.422 8.32031 145.273 5.50781 148.789 3.4375C152.344 1.32812 156.191 0.273438 160.332 0.273438C164.59 0.273438 168.496 1.32812 172.051 3.4375C175.605 5.58594 178.438 8.4375 180.547 11.9922C182.695 15.5469 183.77 19.5312 183.77 23.9453V33.7891C183.77 34.1016 183.613 34.2578 183.301 34.2578H169.824C169.512 34.2578 169.355 34.1016 169.355 33.7891L169.238 23.9453C169.238 21.1328 168.359 18.8477 166.602 17.0898C164.844 15.332 162.754 14.4531 160.332 14.4531C157.871 14.4531 155.762 15.3906 154.004 17.2656C152.246 19.1406 151.367 21.3672 151.367 23.9453C151.367 26.5625 151.914 28.75 153.008 30.5078C154.141 32.2656 156.191 33.9453 159.16 35.5469C159.473 35.7031 160.195 36.0938 161.328 36.7188C162.461 37.3438 163.711 38.0469 165.078 38.8281C166.484 39.5703 167.754 40.2539 168.887 40.8789C170.02 41.4648 170.703 41.8164 170.938 41.9336C174.922 44.1602 178.066 46.8945 180.371 50.1367C182.715 53.3789 183.887 57.3633 183.887 62.0898C183.887 66.6602 182.832 70.7617 180.723 74.3945C178.574 78.0273 175.723 80.8984 172.168 83.0078C168.613 85.1172 164.668 86.1719 160.332 86.1719Z" fill="white"/>
<path shape-rendering="geometricPrecision" d="M206.27 85H192.793C192.402 85 192.207 84.8047 192.207 84.4141L192.441 1.97266C192.441 1.66016 192.598 1.50391 192.91 1.50391H215.996C223.34 1.50391 229.141 3.75 233.398 8.24219C237.695 12.6953 239.844 18.7695 239.844 26.4648C239.844 32.0898 238.73 36.9922 236.504 41.1719C234.238 45.3125 231.309 48.5156 227.715 50.7812C224.121 53.0469 220.215 54.1797 215.996 54.1797H206.855V84.4141C206.855 84.8047 206.66 85 206.27 85ZM215.996 15.7422L206.855 15.8594V39.6484H215.996C218.535 39.6484 220.742 38.4375 222.617 36.0156C224.492 33.5547 225.43 30.3711 225.43 26.4648C225.43 23.3398 224.59 20.7812 222.91 18.7891C221.23 16.7578 218.926 15.7422 215.996 15.7422Z" fill="white"/>
<path shape-rendering="geometricPrecision" d="M269.258 86.1719C265 86.1719 261.074 85.0781 257.48 82.8906C253.926 80.7031 251.055 77.793 248.867 74.1602C246.719 70.4883 245.645 66.4648 245.645 62.0898L245.762 24.0625C245.762 19.6094 246.836 15.6055 248.984 12.0508C251.094 8.45703 253.945 5.58594 257.539 3.4375C261.133 1.25 265.039 0.15625 269.258 0.15625C273.633 0.15625 277.559 1.23047 281.035 3.37891C284.551 5.52734 287.363 8.41797 289.473 12.0508C291.621 15.6445 292.695 19.6484 292.695 24.0625L292.812 62.0898C292.812 66.4648 291.758 70.4688 289.648 74.1016C287.5 77.7734 284.648 80.7031 281.094 82.8906C277.539 85.0781 273.594 86.1719 269.258 86.1719ZM269.258 71.6992C271.68 71.6992 273.789 70.7227 275.586 68.7695C277.383 66.7773 278.281 64.5508 278.281 62.0898L278.164 24.0625C278.164 21.4062 277.324 19.1602 275.645 17.3242C273.965 15.4883 271.836 14.5703 269.258 14.5703C266.797 14.5703 264.688 15.4688 262.93 17.2656C261.172 19.0625 260.293 21.3281 260.293 24.0625V62.0898C260.293 64.707 261.172 66.9727 262.93 68.8867C264.688 70.7617 266.797 71.6992 269.258 71.6992Z" fill="white"/>
<path shape-rendering="geometricPrecision" d="M96 43C96 51.2843 89.2843 58 81 58C72.7157 58 66 51.2843 66 43C66 34.7157 72.7157 28 81 28C89.2843 28 96 34.7157 96 43Z" fill="#0030A9"/>
</svg>
