<svg width="438" height="91" viewBox="0 0 438 91" fill="none" xmlns="http://www.w3.org/2000/svg">
<path d="M137 46C137 54.2843 130.284 61 122 61C113.716 61 107 54.2843 107 46C107 37.7157 113.716 31 122 31C130.284 31 137 37.7157 137 46Z" fill="#0030A9"/>
<path d="M186.037 1.72727V89H167.585V1.72727H186.037Z" fill="white"/>
<path d="M248.562 26.8267C248.221 23.3892 246.758 20.7187 244.173 18.8153C241.587 16.9119 238.079 15.9602 233.647 15.9602C230.636 15.9602 228.093 16.3864 226.019 17.2386C223.945 18.0625 222.354 19.2131 221.246 20.6903C220.167 22.1676 219.627 23.8438 219.627 25.7188C219.57 27.2812 219.897 28.6449 220.607 29.8097C221.346 30.9744 222.354 31.983 223.633 32.8352C224.911 33.6591 226.389 34.3835 228.065 35.0085C229.741 35.6051 231.531 36.1165 233.434 36.5426L241.275 38.4176C245.082 39.2699 248.576 40.4062 251.758 41.8267C254.94 43.2472 257.695 44.9943 260.025 47.0682C262.354 49.142 264.158 51.5852 265.437 54.3977C266.744 57.2102 267.411 60.4347 267.44 64.071C267.411 69.4119 266.048 74.0426 263.349 77.9631C260.678 81.8551 256.815 84.8807 251.758 87.0398C246.729 89.1705 240.664 90.2358 233.562 90.2358C226.516 90.2358 220.38 89.1563 215.153 86.9972C209.954 84.8381 205.891 81.642 202.965 77.4091C200.067 73.1477 198.548 67.8778 198.406 61.5994H216.261C216.46 64.5256 217.298 66.9688 218.775 68.929C220.281 70.8608 222.283 72.3239 224.783 73.3182C227.312 74.2841 230.167 74.767 233.349 74.767C236.474 74.767 239.187 74.3125 241.488 73.4034C243.817 72.4943 245.621 71.2301 246.9 69.6108C248.178 67.9915 248.817 66.1307 248.817 64.0284C248.817 62.0682 248.235 60.4205 247.07 59.0852C245.934 57.75 244.258 56.6136 242.042 55.6761C239.854 54.7386 237.17 53.8864 233.988 53.1193L224.485 50.733C217.127 48.9432 211.317 46.1449 207.056 42.3381C202.795 38.5312 200.678 33.4034 200.707 26.9545C200.678 21.6705 202.085 17.054 204.925 13.1051C207.795 9.15625 211.729 6.07386 216.729 3.85795C221.729 1.64204 227.411 0.534088 233.775 0.534088C240.252 0.534088 245.906 1.64204 250.735 3.85795C255.593 6.07386 259.371 9.15625 262.07 13.1051C264.769 17.054 266.161 21.6278 266.246 26.8267H248.562Z" fill="white"/>
<path d="M279.851 89V1.72727H314.283C320.902 1.72727 326.541 2.99148 331.2 5.51989C335.859 8.01989 339.411 11.5 341.854 15.9602C344.325 20.392 345.561 25.5057 345.561 31.3011C345.561 37.0966 344.311 42.2102 341.811 46.642C339.311 51.0739 335.689 54.5256 330.945 56.9972C326.229 59.4687 320.518 60.7045 313.814 60.7045H291.868V45.9176H310.831C314.382 45.9176 317.308 45.3068 319.609 44.0852C321.939 42.8352 323.672 41.1165 324.808 38.929C325.973 36.7131 326.555 34.1705 326.555 31.3011C326.555 28.4034 325.973 25.875 324.808 23.7159C323.672 21.5284 321.939 19.8381 319.609 18.6449C317.28 17.4233 314.325 16.8125 310.746 16.8125H298.303V89H279.851Z" fill="white"/>
<path d="M437.745 45.3636C437.745 54.8807 435.941 62.9773 432.333 69.6534C428.754 76.3295 423.867 81.429 417.674 84.9517C411.509 88.446 404.577 90.1932 396.879 90.1932C389.123 90.1932 382.163 88.4318 375.998 84.9091C369.833 81.3864 364.961 76.2869 361.381 69.6108C357.802 62.9347 356.012 54.8523 356.012 45.3636C356.012 35.8466 357.802 27.75 361.381 21.0739C364.961 14.3977 369.833 9.3125 375.998 5.81818C382.163 2.29545 389.123 0.534088 396.879 0.534088C404.577 0.534088 411.509 2.29545 417.674 5.81818C423.867 9.3125 428.754 14.3977 432.333 21.0739C435.941 27.75 437.745 35.8466 437.745 45.3636ZM419.038 45.3636C419.038 39.1989 418.114 34 416.268 29.767C414.45 25.5341 411.879 22.3239 408.555 20.1364C405.231 17.9489 401.339 16.8551 396.879 16.8551C392.418 16.8551 388.526 17.9489 385.202 20.1364C381.879 22.3239 379.293 25.5341 377.447 29.767C375.629 34 374.719 39.1989 374.719 45.3636C374.719 51.5284 375.629 56.7273 377.447 60.9602C379.293 65.1932 381.879 68.4034 385.202 70.5909C388.526 72.7784 392.418 73.8722 396.879 73.8722C401.339 73.8722 405.231 72.7784 408.555 70.5909C411.879 68.4034 414.45 65.1932 416.268 60.9602C418.114 56.7273 419.038 51.5284 419.038 45.3636Z" fill="white"/>
<path d="M78.5881 32.2812H59.9233C59.5824 29.8665 58.8864 27.7216 57.8352 25.8466C56.7841 23.9432 55.4347 22.3239 53.7869 20.9886C52.1392 19.6534 50.2358 18.6307 48.0767 17.9205C45.946 17.2102 43.6307 16.8551 41.1307 16.8551C36.6137 16.8551 32.679 17.9773 29.3267 20.2216C25.9744 22.4375 23.375 25.6761 21.5284 29.9375C19.6818 34.1705 18.7585 39.3125 18.7585 45.3636C18.7585 51.5852 19.6818 56.8125 21.5284 61.0455C23.4034 65.2784 26.0171 68.4744 29.3693 70.6335C32.7216 72.7926 36.5994 73.8722 41.0029 73.8722C43.4744 73.8722 45.7614 73.5455 47.8637 72.892C49.9943 72.2386 51.8835 71.2869 53.5313 70.0369C55.179 68.7585 56.5426 67.2102 57.6222 65.392C58.7301 63.5739 59.4972 61.5 59.9233 59.1705L78.5881 59.2557C78.1051 63.2614 76.8977 67.125 74.9659 70.8466C73.0625 74.5398 70.4915 77.8494 67.2529 80.7756C64.0426 83.6733 60.2074 85.9744 55.7472 87.679C51.3154 89.3551 46.3011 90.1932 40.7046 90.1932C32.9205 90.1932 25.9602 88.4318 19.8239 84.9091C13.7159 81.3864 8.88638 76.2869 5.33524 69.6108C1.81251 62.9347 0.0511475 54.8523 0.0511475 45.3636C0.0511475 35.8466 1.84092 27.75 5.42047 21.0739C9.00001 14.3977 13.858 9.3125 19.9943 5.81818C26.1307 2.29545 33.0341 0.534088 40.7046 0.534088C45.7614 0.534088 50.4489 1.24432 54.7671 2.66477C59.1136 4.08523 62.9631 6.15909 66.3154 8.88636C69.6676 11.5852 72.3949 14.8949 74.4972 18.8153C76.6279 22.7358 77.9915 27.2244 78.5881 32.2812Z" fill="white"/>
</svg>
