<svg width="1920" height="1080" viewBox="0 0 1920 1080" fill="none" xmlns="http://www.w3.org/2000/svg">
<mask id="mask0_113_312" style="mask-type:alpha" maskUnits="userSpaceOnUse" x="0" y="0" width="1920" height="1080">
<rect width="1920" height="1080" fill="#0E1117"/>
</mask>
<g mask="url(#mask0_113_312)">
<path d="M-217 835.868C74.8662 646.363 428.274 498.293 607.415 627.473C786.557 756.653 802.596 967.134 1104.62 981.5C1451.5 998 1537.24 618.942 1795.6 498.293C2002.28 401.773 2282.65 409.735 2397 425.781" stroke="#0033AD"/>
<path d="M-298 227C-252.305 166.913 5.93756 14.0591 253.5 82.5C485.764 146.711 575.5 555.172 979.525 559.949C1432.82 565.308 1882.05 148.883 2050 -60" stroke="#0000FF" stroke-width="2"/>
<path d="M-219.613 809.71C63.5752 625.348 408.034 480.338 584.662 604.152C761.289 727.966 780.891 930.976 1077.17 945.983C1420.35 964.022 1506.22 610.368 1769.27 493.764C1983.91 400.531 2269.73 394.803 2385.81 403.593" stroke="#0031B0" stroke-width="1.03226"/>
<path d="M-222.226 787.518C52.2843 608.301 387.794 466.349 561.908 584.797C736.022 703.245 759.185 898.785 1049.71 914.432C1389.19 934.01 1475.2 605.76 1742.95 493.202C1965.54 403.256 2256.8 383.838 2374.61 385.372" stroke="#0030B2" stroke-width="1.06452"/>
<path d="M-224.839 768.111C40.9934 594.037 367.554 455.145 539.154 568.227C710.754 681.309 737.479 869.378 1022.26 885.666C1358.04 906.783 1444.17 603.936 1716.62 495.425C1947.17 408.764 2243.88 375.657 2363.42 369.935" stroke="#002EB5" stroke-width="1.09677"/>
<path d="M-227.452 748.785C29.7025 579.856 347.314 444.023 516.4 551.738C685.487 659.454 715.773 840.053 994.801 856.981C1326.89 879.637 1413.15 602.195 1690.3 497.729C1928.8 414.355 2230.96 367.558 2352.23 354.581" stroke="#002CB8" stroke-width="1.12903"/>
<path d="M-230.065 729.46C18.4115 565.674 327.074 432.9 493.647 535.25C660.22 637.6 694.068 810.728 967.346 828.297C1295.74 852.492 1382.12 600.453 1663.97 500.034C1910.43 419.946 2218.04 359.459 2341.03 339.226" stroke="#002BBA" stroke-width="1.16129"/>
<path d="M-232.677 710.134C7.12059 551.493 306.834 421.778 470.893 518.762C634.952 615.745 672.362 781.403 939.89 799.612C1264.58 825.346 1351.1 598.712 1637.65 502.338C1892.06 425.537 2205.11 351.36 2329.84 323.871" stroke="#0029BD" stroke-width="1.19355"/>
<path d="M-235.29 690.809C-4.17035 537.311 286.594 410.656 448.139 502.273C609.685 593.891 650.656 752.078 912.434 770.928C1233.43 798.201 1320.08 596.97 1611.32 504.643C1873.69 431.128 2192.19 343.26 2318.65 308.516" stroke="#0027C0" stroke-width="1.22581"/>
<path d="M-237.903 671.484C-15.4612 523.13 266.353 399.533 425.385 485.785C584.417 572.036 628.951 722.753 884.979 742.243C1202.28 771.056 1289.05 595.229 1585 506.947C1855.32 436.719 2179.27 335.161 2307.45 293.161" stroke="#0026C2" stroke-width="1.25806"/>
<path d="M-240.516 652.158C-26.7522 508.949 246.113 388.411 402.632 469.297C559.15 550.182 607.245 693.428 857.523 713.559C1171.13 743.91 1258.03 593.487 1558.67 509.251C1836.95 442.309 2166.35 327.062 2296.26 277.806" stroke="#0024C5" stroke-width="1.29032"/>
<path d="M-243.129 632.833C-38.0431 494.767 225.873 377.289 379.878 452.808C533.883 528.327 585.539 664.104 830.068 684.874C1139.97 716.765 1227 591.745 1532.35 511.556C1818.58 447.9 2153.42 318.963 2285.06 262.452" stroke="#0023C7" stroke-width="1.32258"/>
<path d="M-245.742 613.508C-49.334 480.586 205.633 366.167 357.124 436.32C508.615 506.473 563.833 634.779 802.612 656.19C1108.82 689.619 1195.98 590.004 1506.02 513.86C1800.21 453.491 2140.5 310.864 2273.87 247.097" stroke="#0021CA" stroke-width="1.35484"/>
<path d="M-248.355 594.182C-60.625 466.404 185.393 355.044 334.37 419.831C483.348 484.618 542.128 605.454 775.156 627.505C1077.67 662.474 1164.96 588.262 1479.7 516.165C1781.84 459.082 2127.58 302.765 2262.68 231.742" stroke="#001FCD" stroke-width="1.3871"/>
<path d="M-250.968 574.857C-71.9159 452.223 165.153 343.922 311.617 403.343C458.081 462.764 520.422 576.129 747.701 598.821C1046.51 635.329 1133.93 586.521 1453.37 518.469C1763.47 464.673 2114.66 294.666 2251.48 216.387" stroke="#001ECF" stroke-width="1.41935"/>
<path d="M-253.581 555.531C-83.2068 438.041 144.913 332.8 288.863 386.855C432.813 440.909 498.716 546.804 720.245 570.136C1015.36 608.183 1102.91 584.779 1427.05 520.774C1745.1 470.264 2101.73 286.567 2240.29 201.032" stroke="#001CD2" stroke-width="1.45161"/>
<path d="M-256.194 536.206C-94.4978 423.86 124.673 321.678 266.109 370.366C407.546 419.055 477.01 517.479 692.79 541.452C984.208 581.038 1071.88 583.037 1400.72 523.078C1726.73 475.854 2088.81 278.468 2229.1 185.677" stroke="#001AD5" stroke-width="1.48387"/>
<path d="M-258.806 516.881C-105.789 409.678 104.433 310.555 243.356 353.878C382.278 397.2 455.305 488.154 665.334 512.767C953.056 553.892 1040.86 581.296 1374.4 525.382C1708.36 481.445 2075.89 270.369 2217.9 170.323" stroke="#0019D7" stroke-width="1.51613"/>
<path d="M-261.419 497.555C-117.08 395.497 84.1928 299.433 220.602 337.389C357.011 375.346 433.599 458.829 637.878 484.083C921.903 526.747 1009.84 579.554 1348.07 527.687C1689.99 487.036 2062.96 262.27 2206.71 154.968" stroke="#0017DA" stroke-width="1.54839"/>
<path d="M-264.032 478.23C-128.371 381.315 63.9527 288.311 197.848 320.901C331.743 353.491 411.893 429.504 610.423 455.398C890.75 499.602 978.812 577.813 1321.75 529.991C1671.62 492.627 2050.04 254.171 2195.52 139.613" stroke="#0015DD" stroke-width="1.58065"/>
<path d="M-266.645 458.905C-139.661 367.134 43.7126 277.189 175.094 304.413C306.476 331.637 390.188 400.179 582.967 426.714C859.597 472.456 947.788 576.071 1295.42 532.296C1653.25 498.218 2037.12 246.071 2184.32 124.258" stroke="#0014DF" stroke-width="1.6129"/>
<path d="M-269.258 439.579C-150.952 352.953 23.4726 266.066 152.341 287.924C281.209 309.782 368.482 370.854 555.512 398.029C828.444 445.311 916.764 574.33 1269.1 534.6C1634.88 503.809 2024.2 237.972 2173.13 108.903" stroke="#0012E2" stroke-width="1.64516"/>
<path d="M-271.871 420.254C-162.243 338.771 3.23248 254.944 129.587 271.436C255.941 287.928 346.776 341.529 528.056 369.345C797.292 418.165 885.74 572.588 1242.77 536.904C1616.51 509.399 2011.27 229.873 2161.94 93.5484" stroke="#0010E5" stroke-width="1.67742"/>
<path d="M-274.484 400.928C-173.534 324.59 -17.0076 243.822 106.833 254.948C230.674 266.073 325.07 312.204 500.6 340.66C766.139 391.02 854.716 570.846 1216.45 539.209C1598.14 514.99 1998.35 221.774 2150.74 78.1935" stroke="#000FE7" stroke-width="1.70968"/>
<path d="M-277.097 381.603C-184.825 310.408 -37.2477 232.7 84.0794 238.459C205.407 244.219 303.365 282.879 473.145 311.976C734.986 363.875 823.692 569.105 1190.12 541.513C1579.77 520.581 1985.43 213.675 2139.55 62.8387" stroke="#000DEA" stroke-width="1.74194"/>
<path d="M-279.71 362.278C-196.116 296.227 -57.4878 221.577 61.3257 221.971C180.139 222.364 281.659 253.554 445.689 283.291C703.833 336.729 792.668 567.363 1163.8 543.818C1561.4 526.172 1972.51 205.576 2128.35 47.4839" stroke="#000CEC" stroke-width="1.77419"/>
<path d="M-282.323 342.952C-207.407 282.045 -77.7278 210.455 38.572 205.482C154.872 200.51 259.953 224.229 418.234 254.607C672.68 309.584 761.644 565.622 1137.47 546.122C1543.04 531.763 1959.58 197.477 2117.16 32.129" stroke="#000AEF" stroke-width="1.80645"/>
<path d="M-284.935 323.627C-218.698 267.864 -97.9678 199.333 15.8183 188.994C129.604 178.655 238.247 194.904 390.778 225.922C641.528 282.438 730.62 563.88 1111.15 548.427C1524.67 537.354 1946.66 189.378 2105.97 16.7742" stroke="#0008F2" stroke-width="1.83871"/>
<path d="M-287.548 304.302C-229.989 253.682 -118.208 188.21 -6.93542 172.506C104.337 156.801 216.542 165.579 363.322 197.238C610.375 255.293 699.596 562.138 1084.82 550.731C1506.3 542.944 1933.74 181.279 2094.77 1.41934" stroke="#0007F4" stroke-width="1.87097"/>
<path d="M-290.161 284.976C-241.28 239.501 -138.448 177.088 -29.6891 156.017C79.0697 134.946 194.836 136.254 335.867 168.553C579.222 228.148 668.572 560.397 1058.5 553.035C1487.93 548.535 1920.81 173.18 2083.58 -13.9355" stroke="#0005F7" stroke-width="1.90323"/>
<path d="M-292.774 265.651C-252.571 225.32 -158.688 165.966 -52.4429 139.529C53.8023 113.092 173.13 106.929 308.411 139.869C548.069 201.002 637.548 558.655 1032.17 555.34C1469.56 554.126 1907.89 165.081 2072.39 -29.2903" stroke="#0003FA" stroke-width="1.93548"/>
<path d="M-295.387 246.325C-263.862 211.138 -178.928 154.844 -75.1967 123.041C28.5349 91.2374 151.425 77.6045 280.956 111.184C516.917 173.857 606.524 556.914 1005.85 557.644C1451.19 559.717 1894.97 156.982 2061.19 -44.6452" stroke="#0002FC" stroke-width="1.96774"/>
</g>
</svg>
